Coordinates
version=1
nRows=16
nColumns=38
inDegrees=no

Units are S.I. units (second, meters, Newtons, ...)
If the header above contains a line with 'inDegrees', this indicates whether rotational values are in degrees (yes) or radians (no).

endheader
time	pelvis_tilt	pelvis_list	pelvis_rotation	pelvis_tx	pelvis_ty	pelvis_tz	hip_flexion_r	hip_adduction_r	hip_rotation_r	knee_angle_r	ankle_angle_r	subtalar_angle_r	mtp_angle_r	hip_flexion_l	hip_adduction_l	hip_rotation_l	knee_angle_l	ankle_angle_l	subtalar_angle_l	mtp_angle_l	lumbar_extension	lumbar_bending	lumbar_rotation	arm_flex_r	arm_add_r	arm_rot_r	elbow_flex_r	pro_sup_r	wrist_flex_r	wrist_dev_r	arm_flex_l	arm_add_l	arm_rot_l	elbow_flex_l	pro_sup_l	wrist_flex_l	wrist_dev_l
1.35	-0.117612	1.34196	-1.368	0.779273	0.536369	0.934344	-0.523599	0.0535031	-0.328326	0.212028	-0.0891279	0	0	0.153697	-0.114931	-0.439731	0.387905	-0.143826	0	0	-0.40675	0.00654954	-0.200635	-0.0414468	-0.426363	0.610896	0.747576	0.765244	0	0	-0.392438	-0.326233	-0.131582	0.993819	1.5708	0	0
1.36	-0.116852	1.34069	-1.37308	0.780549	0.524329	0.933556	-0.523599	0.0455972	-0.330914	0.240892	-0.0885962	0	0	0.149112	-0.117812	-0.448838	0.417764	-0.143394	0	0	-0.405889	0.00347261	-0.195949	-0.0454872	-0.429758	0.614175	0.750423	0.755351	0	0	-0.39747	-0.326526	-0.134609	0.990606	1.5708	0	0
1.37	-0.113219	1.34022	-1.37997	0.782007	0.512062	0.932903	-0.523599	0.0372089	-0.332528	0.270944	-0.090241	0	0	0.141098	-0.115036	-0.449153	0.431594	-0.146845	0	0	-0.404029	6.43484e-05	-0.192869	-0.0499242	-0.432491	0.616311	0.752094	0.747179	0	0	-0.402471	-0.32528	-0.140679	0.987352	1.5708	0	0
1.38	-0.105413	1.34105	-1.38975	0.783642	0.49958	0.932408	-0.523599	0.0279199	-0.334111	0.302458	-0.0941337	0	0	0.132178	-0.107818	-0.446171	0.432145	-0.161848	0	0	-0.402592	-0.00471208	-0.18447	-0.0816812	-0.411295	0.525304	0.751931	0.835053	0	0	-0.402494	-0.328453	-0.138136	0.983392	1.5708	0	0
1.39	-0.0948053	1.34116	-1.4017	0.785457	0.487114	0.932195	-0.523599	0.0178207	-0.334105	0.335365	-0.104478	0	0	0.1222	-0.100456	-0.446922	0.428376	-0.191911	0	0	-0.398801	-0.00956578	-0.1871	-0.0727582	-0.423974	0.572549	0.750215	0.78203	0	0	-0.410066	-0.325774	-0.148857	0.979771	1.5708	0	0
1.4	-0.0847191	1.3427	-1.41247	0.787461	0.474556	0.932118	-0.519009	0.00741353	-0.331294	0.370697	-0.117364	0	0	0.114381	-0.0950057	-0.452549	0.428366	-0.217527	0	0	-0.394191	-0.0144866	-0.185753	-0.0804472	-0.42234	0.563026	0.747594	0.787358	0	0	-0.414354	-0.326246	-0.152397	0.974074	1.5708	0	0
1.41	-0.075331	1.34438	-1.42147	0.78966	0.461999	0.932278	-0.512301	-0.00285354	-0.326125	0.40724	-0.134655	0	0	0.107462	-0.0913233	-0.460712	0.433304	-0.237993	0	0	-0.389645	-0.0185328	-0.186428	-0.087316	-0.420961	0.554103	0.744823	0.793167	0	0	-0.418492	-0.324916	-0.159984	0.968543	1.5708	0	0
1.42	-0.0655843	1.34572	-1.42971	0.791994	0.449562	0.932698	-0.50308	-0.0135288	-0.319554	0.448246	-0.156047	0	0	0.100554	-0.0873583	-0.464369	0.439613	-0.254369	0	0	-0.385801	-0.0220105	-0.188141	-0.0937706	-0.419919	0.545509	0.742249	0.79918	0	0	-0.421796	-0.323878	-0.167201	0.963545	1.5708	0	0
1.43	-0.0570457	1.34572	-1.43607	0.794399	0.437343	0.933357	-0.49204	-0.0243935	-0.310523	0.494472	-0.168589	0	0	0.0930513	-0.083828	-0.463005	0.448108	-0.26287	0	0	-0.383503	-0.0242999	-0.191006	-0.0963092	-0.424373	0.552283	0.742521	0.786563	0	0	-0.424965	-0.324215	-0.172247	0.959339	1.5708	0	0
1.44	-0.0576831	1.35363	-1.43656	0.796607	0.425726	0.933795	-0.486068	-0.0359384	-0.203577	0.510447	-0.194995	0	0	0.0947785	-0.0800894	-0.455023	0.455455	-0.27053	0	0	-0.373527	-0.0260593	-0.190999	-0.0962576	-0.425904	0.556879	0.736054	0.78151	0	0	-0.424544	-0.322765	-0.177639	0.949593	1.5708	0	0
1.45	-0.038758	1.34834	-1.44795	0.799123	0.413415	0.935002	-0.458669	-0.0475295	-0.284995	0.596727	-0.228964	0	0	0.0797082	-0.0747112	-0.446137	0.46188	-0.267257	0	0	-0.37681	-0.0286218	-0.200376	-0.10012	-0.428722	0.559204	0.738381	0.77715	0	0	-0.430697	-0.325202	-0.184057	0.950131	1.5708	0	0
1.46	-0.0240791	1.34765	-1.45847	0.801422	0.401892	0.936166	-0.436875	-0.0603323	-0.281345	0.654695	-0.26609	0	0	0.0692832	-0.069132	-0.436178	0.466339	-0.260783	0	0	-0.376767	-0.0312056	-0.20717	-0.100891	-0.430315	0.561402	0.737362	0.774386	0	0	-0.43291	-0.326596	-0.190373	0.948517	1.5708	0	0
1.47	-0.0019536	1.34602	-1.47583	0.803682	0.390656	0.937532	-0.409968	-0.0756718	-0.291148	0.717237	-0.320812	0	0	0.0558031	-0.0611341	-0.426112	0.466266	-0.253933	0	0	-0.378179	-0.0351619	-0.215355	-0.100742	-0.43145	0.563893	0.736486	0.771729	0	0	-0.435008	-0.330049	-0.195041	0.948612	1.5708	0	0
1.48	0.0247821	1.34509	-1.49793	0.805879	0.379631	0.938942	-0.380377	-0.0924715	-0.300386	0.777812	-0.390438	0	0	0.0413518	-0.0519785	-0.417651	0.463262	-0.247808	0	0	-0.380727	-0.0402766	-0.217984	-0.121916	-0.412641	0.488378	0.735718	0.851361	0	0	-0.432274	-0.338805	-0.189872	0.949562	1.5708	0	0
1.49	0.0507226	1.34225	-1.52032	0.808016	0.36903	0.940397	-0.35161	-0.109291	-0.304267	0.836685	-0.448138	0	0	0.0236054	-0.043177	-0.41188	0.458227	-0.241392	0	0	-0.383381	-0.0448417	-0.229244	-0.107495	-0.429073	0.542061	0.73888	0.797618	0	0	-0.435835	-0.342642	-0.195408	0.952006	1.5708	0	0
1.5	0.0703803	1.34041	-1.53713	0.810086	0.35863	0.941663	-0.320988	-0.124428	-0.303256	0.894523	-0.482576	0	0	0.00638701	-0.0361003	-0.40821	0.452653	-0.235127	0	0	-0.38641	-0.0478631	-0.23527	-0.109324	-0.431762	0.536873	0.744447	0.80216	0	0	-0.435286	-0.349163	-0.194808	0.955582	1.5708	0	0
